<?xml version="1.0" standalone="no"?>
<!DOCTYPE svg PUBLIC "-//W3C//DTD SVG 20010904//EN"
 "http://www.w3.org/TR/2001/REC-SVG-20010904/DTD/svg10.dtd">
<svg version="1.0" xmlns="http://www.w3.org/2000/svg"
 width="838.000000pt" height="838.000000pt" viewBox="0 0 838.000000 838.000000"
 preserveAspectRatio="xMidYMid meet">
<metadata>
Created by potrace 1.11, written by Peter Selinger 2001-2013
</metadata>
<g transform="translate(0.000000,838.000000) scale(0.100000,-0.100000)"
fill="#000000" stroke="none">
<path d="M3797 7348 c-4 -12 -7 -55 -7 -93 0 -61 -3 -74 -25 -97 -14 -15 -25
-34 -25 -42 0 -8 -5 -16 -12 -18 -7 -3 -11 -28 -9 -76 1 -46 -2 -72 -8 -72 -6
0 -11 -7 -11 -16 0 -9 -5 -12 -12 -8 -7 4 -8 3 -4 -4 11 -18 -186 -211 -223
-218 -26 -5 -31 -12 -41 -55 -7 -27 -15 -49 -19 -49 -9 0 -113 -101 -129 -125
-7 -11 -21 -35 -32 -52 -11 -18 -24 -33 -29 -33 -5 0 -11 -9 -14 -20 -7 -26
-30 -17 -48 18 -8 15 -22 37 -33 48 -10 12 -17 25 -16 29 1 4 -7 14 -18 23
-29 26 -49 73 -47 112 2 35 -11 54 -64 90 -27 19 -43 67 -40 127 1 26 -3 58
-10 71 -17 31 -9 67 19 91 l25 20 -25 1 c-15 0 -30 -4 -35 -8 -15 -13 -94 -36
-101 -29 -9 9 -9 53 0 120 7 53 6 57 -13 57 -16 0 -21 -7 -22 -27 -3 -62 -6
-91 -13 -102 -8 -13 -36 -15 -36 -2 0 14 -81 101 -90 96 -4 -3 -10 2 -14 10
-3 9 -12 12 -21 9 -14 -6 -12 -11 12 -37 l28 -30 -28 5 c-42 8 -43 -10 -1 -28
38 -16 102 -75 139 -128 11 -15 35 -48 53 -72 63 -84 77 -141 56 -226 -4 -17
-2 -28 4 -28 5 0 15 -13 22 -30 7 -16 16 -30 20 -30 3 0 7 -6 7 -12 1 -7 24
-77 51 -155 35 -98 46 -143 37 -143 -7 0 -20 11 -29 25 -24 37 -38 31 -67 -28
-17 -35 -33 -53 -47 -55 -14 -2 -22 -11 -22 -22 0 -10 -8 -26 -17 -36 -12 -12
-18 -37 -20 -87 -1 -39 -6 -73 -10 -76 -5 -3 -14 -19 -21 -34 -7 -15 -16 -26
-21 -23 -5 4 -11 0 -13 -6 -3 -7 -13 -13 -24 -13 -16 0 -18 -7 -18 -45 1 -27
6 -44 13 -43 12 3 22 -31 19 -64 -1 -14 -11 -24 -25 -28 -13 -3 -21 -10 -18
-14 7 -13 -55 -7 -63 6 -4 5 -17 15 -29 21 -19 11 -24 8 -43 -26 l-23 -37 -18
43 c-10 23 -25 45 -34 48 -8 3 -12 11 -8 17 3 5 2 7 -4 4 -6 -4 -19 0 -29 8
-11 8 -31 11 -46 8 -17 -3 -28 -1 -28 6 0 30 -45 -3 -88 -64 -11 -17 -88 -47
-108 -43 -13 2 -19 12 -19 28 0 14 -5 34 -12 45 -11 19 -12 19 -18 -7 -4 -15
-4 -31 -1 -37 7 -11 -29 -25 -44 -16 -6 4 -8 11 -5 16 3 5 0 6 -8 3 -7 -2 -13
-15 -12 -27 2 -19 7 -22 42 -19 48 4 70 -16 54 -47 -6 -11 -8 -26 -5 -34 3 -8
-2 -17 -10 -20 -10 -4 -16 -18 -16 -37 0 -16 -5 -30 -11 -30 -8 0 -8 -5 1 -15
7 -8 18 -15 24 -15 18 0 18 -48 0 -58 -9 -5 -17 -13 -17 -18 -1 -5 -6 -7 -12
-5 -25 11 -99 3 -109 -11 -32 -43 -151 27 -195 115 -8 15 -18 27 -23 27 -4 0
-8 9 -8 20 0 11 -4 20 -10 20 -5 0 -10 8 -10 18 -1 26 -25 52 -49 52 -21 0
-30 -28 -14 -44 4 -4 13 -25 19 -47 13 -44 18 -40 -71 -54 -55 -9 -95 -27 -95
-44 0 -8 3 -12 6 -8 4 3 13 -1 21 -9 8 -8 20 -11 26 -7 17 11 35 13 93 15 43
2 55 -2 77 -24 40 -40 15 -98 -50 -114 -33 -9 -53 -27 -53 -48 0 -21 10 -20
40 4 28 22 90 26 123 9 11 -7 37 -13 56 -15 93 -7 131 -13 149 -23 11 -6 22
-7 26 -4 3 3 6 0 7 -8 1 -25 6 -53 14 -81 7 -26 5 -28 -19 -26 -14 1 -26 7
-26 13 0 6 -9 11 -20 12 -22 2 -24 -1 -11 -25 8 -15 3 -17 -35 -19 -49 -1 -78
-18 -70 -40 7 -18 0 -16 -29 9 -14 12 -25 30 -25 40 0 11 -7 18 -20 18 -13 0
-20 7 -20 19 0 10 -9 29 -21 42 -11 13 -18 18 -14 12 3 -7 1 -13 -5 -13 -6 0
-8 -4 -5 -10 10 -15 -21 -12 -34 4 -6 8 -10 19 -9 26 2 7 -3 15 -9 17 -7 3
-13 -2 -13 -10 0 -18 -27 -42 -49 -42 -9 0 -17 -10 -19 -22 -2 -15 2 -23 11
-23 8 0 17 -14 21 -31 9 -48 8 -50 -26 -47 -29 3 -33 0 -31 -19 2 -15 -3 -23
-12 -23 -10 0 -15 -11 -15 -35 0 -19 -4 -35 -9 -35 -17 0 -23 -41 -10 -72 10
-25 10 -31 -2 -39 -10 -7 -11 -11 -2 -17 6 -4 15 -30 21 -57 5 -28 11 -57 13
-65 2 -8 -1 -14 -8 -13 -6 1 -17 -4 -23 -13 -10 -11 -10 -18 4 -32 21 -24 20
-31 -4 -25 -11 3 -20 0 -20 -6 0 -6 5 -11 10 -11 6 0 10 -7 10 -15 0 -18 -20
-15 -40 6 -8 9 -20 14 -26 12 -6 -2 -11 10 -11 28 0 17 -5 34 -12 38 -7 5 -13
12 -14 17 -1 5 -5 8 -8 7 -4 -1 -5 7 -2 18 7 25 -15 69 -34 69 -7 0 -12 6 -10
13 1 6 -5 12 -13 12 -8 0 -15 -8 -15 -17 0 -9 -4 -20 -8 -24 -10 -11 -9 -21 6
-36 19 -22 37 -56 37 -73 0 -9 4 -14 9 -10 5 3 11 -5 13 -17 2 -13 9 -22 16
-21 6 2 12 -4 12 -12 0 -8 6 -12 14 -9 8 3 16 -3 19 -16 8 -30 -2 -50 -24 -50
-15 0 -19 -7 -19 -40 l0 -40 -35 6 c-27 4 -35 2 -35 -10 0 -8 4 -18 10 -21 6
-4 4 -18 -6 -37 -15 -28 -15 -32 0 -40 17 -10 11 -38 -9 -38 -7 0 -16 7 -19
16 -5 12 -15 14 -51 8 -30 -4 -45 -3 -45 5 0 19 -27 12 -43 -11 -13 -20 -18
-21 -36 -11 -11 7 -27 10 -36 7 -18 -7 -20 -30 -2 -37 10 -4 10 -6 0 -6 -8 -1
-13 -16 -13 -40 0 -34 -3 -38 -20 -34 -11 3 -20 0 -20 -6 0 -6 -16 -11 -35
-11 -19 0 -34 -3 -33 -7 0 -5 -2 -16 -7 -26 -4 -10 -2 -23 5 -32 10 -12 10
-15 -2 -15 -15 0 -58 -52 -58 -70 0 -5 7 -10 15 -10 8 0 15 7 15 15 0 17 16
20 25 5 3 -5 1 -10 -4 -10 -16 0 -13 -21 5 -41 18 -20 12 -75 -7 -63 -8 4 -8
1 -1 -12 18 -36 23 -74 10 -72 -7 2 -14 -7 -16 -20 -3 -17 2 -25 17 -29 12 -3
21 -14 21 -24 0 -22 0 -22 35 -9 20 8 27 7 31 -5 4 -8 14 -15 24 -15 27 0 33
-28 7 -36 -12 -4 -23 -2 -25 5 -5 15 -39 14 -45 -2 -6 -15 15 -47 32 -47 6 0
11 -4 11 -10 0 -5 -4 -10 -10 -10 -5 0 -10 -4 -10 -8 0 -11 91 -52 114 -52 36
0 103 -49 78 -58 -10 -3 -10 -7 0 -19 10 -12 9 -17 -5 -24 -9 -6 -17 -17 -17
-25 0 -10 9 -6 27 13 22 21 29 24 31 11 2 -8 14 -20 27 -26 14 -7 25 -17 25
-24 0 -16 -133 -17 -170 -2 -17 8 -34 8 -54 1 -21 -7 -30 -6 -37 4 -5 8 -9 10
-10 4 0 -5 -2 -19 -4 -31 -4 -18 0 -20 25 -16 21 3 32 -1 42 -17 7 -12 23 -21
35 -21 13 0 23 -5 23 -10 0 -6 18 -17 41 -26 22 -9 37 -20 32 -25 -13 -13
-102 -17 -107 -5 -2 6 -5 3 -5 -6 -1 -10 6 -18 15 -18 9 0 14 -6 11 -12 -2 -7
-12 -12 -22 -10 -9 2 -14 -1 -11 -6 3 -6 -9 -15 -27 -22 l-32 -12 32 -11 c17
-7 35 -15 39 -20 4 -4 16 -7 26 -7 10 0 18 -4 18 -8 0 -5 21 -3 47 3 27 7 53
9 58 5 21 -17 51 -14 81 7 17 12 34 20 38 16 3 -3 6 1 6 9 0 8 8 15 18 15 107
0 132 4 152 25 11 12 20 18 20 14 0 -4 7 0 15 8 14 14 19 12 43 -15 20 -22 36
-30 65 -31 28 -1 37 -5 37 -18 0 -18 -18 -38 -35 -39 -5 0 -11 -6 -13 -14 -2
-10 4 -13 21 -10 17 3 24 0 24 -11 0 -9 -6 -16 -13 -16 -6 0 -14 -7 -18 -15
-7 -18 -42 -20 -49 -2 -3 7 -6 4 -6 -6 -1 -10 -8 -25 -16 -34 -9 -8 -19 -28
-22 -44 -3 -16 -9 -26 -14 -23 -5 3 -9 -1 -9 -10 0 -15 -16 -16 -38 -2 -9 5
-15 1 -19 -14 -3 -13 -11 -19 -19 -16 -8 3 -14 -1 -14 -9 0 -11 -9 -15 -30
-13 -22 2 -30 7 -31 23 0 11 -3 14 -6 7 -2 -6 -9 -9 -15 -6 -5 3 -3 -8 6 -24
23 -44 21 -86 -2 -80 -12 3 -18 -1 -18 -12 0 -9 7 -17 15 -16 8 1 17 -7 19
-16 5 -24 -43 -25 -56 -2 -6 11 -11 13 -16 5 -4 -6 -4 -11 -1 -11 3 0 0 -6 -7
-14 -7 -7 -18 -12 -24 -9 -7 2 -23 -8 -37 -23 -14 -14 -31 -24 -38 -22 -19 6
-59 -37 -59 -65 0 -32 -10 -40 -27 -19 -11 15 -12 13 -3 -12 7 -20 7 -32 0
-41 -8 -10 -8 -15 1 -20 6 -4 14 -3 18 3 4 6 15 10 26 8 15 -2 20 -11 21 -35
1 -17 4 -34 7 -37 12 -12 170 -10 182 3 15 14 64 28 84 24 8 -1 17 2 20 7 9
14 51 25 51 13 0 -6 7 -8 15 -5 10 4 15 0 15 -11 0 -9 -5 -13 -11 -9 -6 3 -15
0 -20 -7 -11 -18 -12 -32 -1 -25 4 3 7 -9 6 -27 -1 -17 -7 -33 -13 -35 -6 -2
-9 -7 -7 -11 3 -4 0 -13 -5 -21 -8 -13 -10 -13 -19 0 -6 9 -10 10 -10 3 0 -6
7 -18 15 -27 23 -23 18 -33 -15 -28 -18 3 -30 0 -30 -7 0 -6 -11 -11 -25 -11
-20 0 -25 -5 -25 -26 0 -14 -4 -23 -9 -19 -5 3 -13 0 -16 -6 -5 -7 1 -9 16 -7
15 2 24 -2 23 -9 -3 -43 -4 -44 -36 -41 -29 3 -33 0 -30 -21 1 -17 -2 -22 -13
-18 -8 4 -17 1 -21 -5 -5 -8 3 -9 25 -5 23 5 33 3 37 -8 4 -8 9 -13 14 -10 4
2 5 -7 2 -22 -4 -23 -2 -25 21 -21 20 4 25 1 24 -14 -1 -11 -7 -16 -15 -13 -7
2 -11 1 -8 -4 3 -5 17 -9 31 -9 33 0 36 -3 28 -30 -3 -13 -13 -22 -24 -22 -13
0 -17 -5 -12 -17 5 -11 3 -14 -6 -8 -10 6 -11 3 -1 -14 9 -18 9 -22 -4 -19 -8
2 -28 -16 -46 -40 -17 -23 -35 -40 -41 -37 -5 4 -8 1 -7 -7 2 -8 -7 -13 -24
-13 -15 -1 -31 -5 -35 -10 -4 -4 -2 -5 5 -1 7 4 12 1 12 -8 0 -9 -5 -16 -11
-16 -6 0 -9 -6 -6 -13 3 -9 -7 -12 -37 -12 -45 1 -68 -21 -58 -57 5 -22 6 -22
39 -1 26 17 27 17 20 0 -9 -23 21 -19 44 5 9 10 26 18 38 18 12 0 20 4 17 9
-4 5 12 12 34 16 25 4 40 12 40 21 0 8 5 14 10 14 6 0 10 7 10 15 0 9 9 15 25
15 25 0 33 -18 15 -36 -5 -5 -6 -15 -1 -22 6 -10 14 -10 35 -2 41 15 49 13 44
-14 -4 -17 -1 -23 9 -19 7 3 13 11 13 19 0 20 56 74 77 74 10 0 23 8 30 19 8
13 23 18 59 18 27 0 50 5 52 11 2 6 10 8 18 5 8 -3 23 4 33 16 10 11 25 21 34
21 9 0 24 10 34 23 10 13 22 24 26 25 10 2 41 32 33 32 -5 0 19 69 27 76 1 1
14 5 30 9 21 6 27 4 27 -10 0 -9 5 -13 10 -10 6 4 8 10 5 14 -2 5 9 11 25 15
32 6 46 5 43 -4 -1 -3 10 -6 25 -5 19 0 32 9 47 32 11 18 30 36 43 39 12 3 22
12 22 20 0 8 4 14 9 14 5 0 7 10 3 22 -3 14 -2 19 6 14 8 -5 12 3 12 23 0 35
10 38 46 15 14 -9 42 -19 62 -21 20 -2 39 -8 40 -13 2 -6 15 -10 28 -10 14 0
23 -4 20 -9 -4 -5 2 -7 13 -4 10 3 22 0 25 -6 4 -5 14 -7 23 -4 13 5 15 2 9
-20 -4 -16 -1 -31 7 -39 17 -17 18 -49 2 -68 -21 -24 -45 -89 -35 -95 12 -7 6
-40 -8 -40 -6 0 -14 -3 -18 -7 -4 -5 -2 -8 4 -8 7 0 9 -11 6 -30 -4 -19 -2
-30 5 -30 6 0 11 7 11 15 0 17 40 17 52 0 5 -6 8 -5 8 3 0 6 9 12 20 12 11 0
20 -6 20 -14 0 -8 9 -13 24 -12 14 0 22 6 19 14 -3 7 3 12 16 12 16 0 23 -8
27 -29 7 -34 31 -43 76 -30 17 4 34 6 39 4 4 -3 17 7 29 22 19 24 20 28 6 31
-21 5 -20 11 7 40 12 13 23 32 23 43 3 35 4 39 14 39 6 0 10 -7 10 -15 0 -8 4
-15 10 -15 8 0 26 66 22 82 -4 15 19 8 23 -7 3 -8 8 -23 12 -32 10 -27 11 -53
2 -59 -11 -6 -1 -34 22 -59 28 -32 34 -72 12 -79 -38 -13 -49 -86 -12 -86 14
0 19 7 19 28 0 39 8 44 39 25 14 -10 27 -17 28 -18 2 -1 -5 -27 -14 -58 -12
-37 -23 -57 -33 -57 -17 0 -52 -35 -43 -43 2 -3 0 -14 -6 -25 -6 -11 -12 -34
-13 -52 -1 -17 -6 -34 -10 -36 -4 -3 -8 -16 -8 -29 0 -13 -5 -27 -10 -30 -6
-4 -8 -11 -5 -16 4 -5 2 -9 -3 -9 -5 0 -7 -12 -4 -26 4 -20 2 -25 -8 -19 -9 5
-11 4 -6 -4 4 -6 11 -9 16 -6 12 7 30 -27 30 -55 0 -12 -9 -35 -21 -51 -15
-22 -20 -41 -17 -69 3 -37 2 -39 -21 -33 -17 4 -22 3 -16 -6 4 -8 -1 -14 -15
-18 -16 -4 -18 -8 -9 -14 22 -13 -20 -51 -48 -44 -17 4 -23 1 -23 -11 0 -10
-6 -14 -14 -11 -11 4 -14 -1 -12 -21 1 -15 8 -26 15 -24 6 1 21 -2 31 -8 16
-8 20 -8 20 3 0 21 48 28 53 8 4 -14 5 -14 6 0 1 14 36 32 57 28 4 0 10 4 14
11 4 6 25 18 46 25 21 8 32 14 23 15 -16 0 -36 34 -34 60 0 8 -3 18 -8 21 -5
3 -4 21 0 40 8 31 13 34 45 34 26 0 34 -4 30 -14 -4 -10 1 -13 19 -9 22 4 24
1 26 -34 2 -22 -1 -37 -5 -34 -5 3 -9 0 -9 -7 0 -7 -4 -25 -8 -41 -5 -19 -4
-27 2 -23 11 7 25 -28 16 -37 -3 -3 -6 -51 -6 -108 0 -79 3 -103 13 -103 7 0
18 9 24 20 6 11 21 33 34 48 12 16 22 35 22 43 0 13 18 18 38 12 10 -4 9 -78
-2 -78 -5 0 -7 -2 -4 -5 8 -8 58 19 58 32 0 6 8 14 18 17 16 5 69 125 63 142
-2 4 2 10 7 13 18 11 52 81 52 106 0 15 6 25 14 25 11 0 13 -10 9 -40 -4 -27
-2 -40 6 -40 8 0 10 -8 6 -20 -4 -11 -2 -20 4 -20 6 0 11 5 11 10 0 6 9 10 20
10 12 0 22 9 26 24 3 13 13 26 23 29 15 4 16 -2 10 -47 -3 -28 -5 -54 -2 -58
7 -13 31 -9 37 7 8 22 25 18 19 -5 -3 -12 0 -20 6 -20 7 0 10 4 6 9 -8 14 16
61 32 61 7 0 13 7 13 15 0 8 9 20 20 27 11 7 20 20 20 29 0 9 7 20 16 23 12 5
15 0 12 -22 -1 -15 -6 -29 -9 -32 -9 -8 10 -70 22 -70 6 0 8 4 4 9 -3 5 -1 12
4 15 5 3 7 15 4 26 -4 14 0 20 11 20 10 0 15 4 12 9 -4 5 -1 11 4 13 6 2 12
10 14 18 6 31 19 50 32 50 14 0 18 -15 15 -56 -2 -15 8 -26 34 -38 21 -10 33
-22 29 -28 -4 -7 -2 -8 4 -4 7 4 12 2 12 -4 0 -6 5 -8 11 -4 6 4 9 19 5 37 -7
32 12 107 26 107 5 0 6 4 3 10 -11 19 6 77 23 78 32 1 72 -10 66 -19 -3 -5 4
-9 15 -9 12 0 21 5 21 10 0 6 11 23 25 38 14 15 25 35 25 44 0 10 7 18 15 18
19 0 41 40 27 49 -9 6 -10 38 -3 129 1 6 8 12 16 12 8 0 15 4 15 9 0 19 35 22
48 4 7 -10 16 -16 20 -15 12 6 34 -71 30 -104 -2 -17 2 -36 9 -43 10 -9 13 -9
13 0 0 6 7 9 15 5 8 -3 27 5 42 18 36 30 67 46 88 46 13 0 16 -6 11 -26 -4
-16 -3 -23 3 -20 5 4 12 2 16 -4 4 -6 11 -8 16 -5 5 4 9 0 9 -7 0 -8 8 -21 18
-29 24 -22 52 -58 52 -67 0 -4 14 -20 30 -36 17 -16 30 -33 30 -38 0 -4 7 -8
15 -8 8 0 15 -4 15 -10 0 -5 9 -10 20 -10 13 0 20 -7 20 -20 0 -14 7 -20 23
-20 12 0 28 -9 35 -20 17 -27 40 -25 54 5 6 13 14 22 19 20 4 -3 10 -1 14 5
11 19 35 10 41 -15 3 -14 10 -22 15 -19 5 3 9 0 9 -5 0 -6 11 -11 24 -11 14 0
28 -4 31 -10 3 -5 15 -10 25 -10 10 0 20 -4 22 -10 5 -15 30 5 33 26 5 47 18
104 24 104 4 0 12 -5 19 -12 9 -9 12 -5 12 20 0 41 9 40 38 -2 15 -22 30 -33
40 -31 29 7 91 31 98 38 4 4 16 7 26 7 10 0 17 3 16 8 -5 16 13 113 27 146 9
22 11 37 5 41 -6 3 -10 15 -10 25 0 10 -6 25 -13 32 -8 7 -13 21 -11 31 2 14
-1 15 -17 6 -22 -11 -39 -4 -39 17 0 8 -7 14 -15 14 -8 0 -15 5 -15 11 0 7 -7
17 -16 23 -24 18 -23 48 2 79 13 16 24 35 24 43 0 9 4 13 8 10 5 -3 9 1 9 9 0
8 -5 12 -10 8 -5 -3 -4 4 2 16 7 12 10 25 7 30 -3 5 4 19 17 32 26 28 77 37
77 14 0 -8 5 -15 10 -15 6 0 10 7 10 15 0 19 19 19 26 0 4 -8 10 -12 15 -9 12
7 11 -2 -2 -29 -10 -22 -10 -22 6 -2 9 11 21 19 26 18 10 -3 10 -1 14 65 3 44
-13 72 -41 72 -8 0 -14 5 -14 11 0 5 -5 7 -10 4 -6 -3 -13 1 -16 10 -6 13 -9
14 -16 3 -7 -10 -12 -9 -26 8 -17 20 -24 24 -42 24 -5 0 -10 7 -10 15 0 8 -9
15 -20 15 -11 0 -20 1 -20 3 -1 16 -29 77 -30 64 0 -27 -22 -16 -27 13 -2 14
-8 29 -13 34 -14 14 -12 58 3 77 7 9 12 35 11 58 0 35 2 42 16 38 13 -3 16 0
13 12 -4 15 6 17 71 19 62 2 76 -1 76 -13 0 -8 -9 -15 -19 -15 -11 0 -23 -5
-27 -11 -5 -8 1 -10 20 -7 19 4 26 1 26 -11 1 -14 2 -14 14 2 14 18 46 23 46
7 0 -5 14 -10 30 -10 34 0 39 -16 13 -36 -17 -13 -17 -14 0 -8 15 5 17 1 14
-35 -2 -29 1 -41 10 -41 7 0 13 -4 13 -10 0 -5 8 -10 18 -10 10 0 24 -9 32
-19 13 -20 14 -20 30 -1 10 11 20 17 24 13 3 -3 6 -1 6 5 0 7 -4 12 -10 12
-16 0 -12 19 10 42 14 15 17 24 9 29 -8 4 -10 21 -6 43 3 20 2 36 -4 36 -5 0
-9 9 -9 20 0 12 7 20 17 20 14 0 14 3 -5 20 -12 11 -28 20 -37 20 -8 0 -15 8
-15 19 0 22 25 45 40 36 5 -3 10 -1 10 4 0 6 10 11 21 11 16 0 20 5 16 20 -3
12 0 20 8 20 7 0 15 11 17 25 3 14 1 25 -4 25 -5 0 -6 4 -3 10 3 6 -1 7 -9 4
-9 -3 -16 -1 -16 5 0 6 -9 11 -20 11 -11 0 -20 5 -20 11 0 6 -7 3 -16 -5 -19
-19 -31 -20 -48 -3 -15 14 -19 67 -5 67 4 0 15 -7 23 -15 12 -12 20 -13 35 -5
39 20 127 0 116 -27 -4 -12 37 -20 69 -14 5 1 6 -5 3 -13 -4 -11 0 -13 18 -10
13 2 30 -2 37 -9 22 -23 56 -37 71 -31 16 6 31 -22 21 -38 -4 -6 5 -20 18 -32
14 -11 28 -31 32 -43 8 -26 18 -28 48 -12 16 9 19 8 12 -3 -5 -8 0 -7 16 4 14
9 24 22 22 28 -1 6 2 9 7 6 5 -4 11 -1 13 5 2 7 17 4 40 -9 32 -18 37 -19 42
-5 4 9 13 13 22 9 8 -3 12 -2 9 4 -3 6 -13 10 -21 10 -22 0 -16 78 8 85 10 4
23 3 29 0 5 -4 25 -4 44 -1 29 6 34 12 44 51 9 35 16 45 32 45 16 0 20 -5 16
-19 -2 -10 -1 -25 4 -32 6 -10 9 -11 9 -1 0 20 44 14 58 -8 20 -33 39 -25 38
18 -1 31 2 37 22 40 12 2 22 -1 22 -7 0 -6 5 -11 10 -11 6 0 10 6 10 14 0 17
32 26 52 15 23 -13 67 -18 73 -9 5 8 -35 22 -70 24 -17 1 -20 8 -19 41 0 37
-2 41 -25 40 -23 0 -26 5 -29 39 -3 37 -2 38 22 34 25 -5 39 16 17 24 -6 2
-11 26 -12 55 -1 29 -6 50 -11 47 -4 -3 -13 6 -19 20 -9 19 -18 24 -40 21 -16
-2 -33 3 -40 11 -7 8 -19 12 -26 9 -20 -7 -40 16 -38 42 1 12 -2 20 -6 17 -15
-9 -21 43 -9 66 10 18 9 21 -1 15 -9 -6 -11 -4 -6 8 4 12 1 15 -16 12 -32 -6
-44 5 -52 48 -6 30 -4 37 9 37 12 0 16 10 16 43 0 24 3 47 8 51 4 4 8 47 8 95
2 80 0 87 -18 88 -11 1 -23 4 -26 7 -9 10 19 35 33 30 10 -4 13 15 14 87 1 96
6 114 21 89 6 -9 5 -19 0 -24 -6 -6 -10 -15 -10 -21 0 -5 4 -3 9 4 7 10 30 16
71 17 34 1 67 7 73 13 6 6 18 11 27 11 15 0 42 33 46 56 1 6 5 21 9 33 4 12 2
21 -4 21 -6 0 -11 10 -11 22 0 17 -3 19 -12 10 -7 -7 -18 -12 -25 -12 -17 0
-17 60 0 60 7 0 5 5 -5 10 -29 17 -32 66 -8 101 13 17 28 28 36 25 30 -11 24
34 -10 85 -20 28 -36 58 -36 66 0 8 -5 11 -11 8 -6 -4 -17 1 -25 11 -8 11 -14
15 -13 9 2 -19 -13 -55 -25 -56 -6 0 -19 -2 -29 -4 -10 -2 -20 2 -23 9 -7 18
-34 16 -34 -3 0 -13 -10 -16 -47 -15 -92 1 -94 2 -89 29 3 13 7 29 11 34 3 5
-2 14 -11 19 -20 11 -22 65 -2 90 7 9 9 14 4 10 -12 -10 -35 16 -33 38 2 22
29 45 57 47 17 1 25 14 22 39 -1 3 12 1 29 -5 24 -10 29 -16 24 -34 -3 -13 -1
-23 4 -23 6 0 8 -7 5 -15 -7 -18 -3 -19 31 -3 30 14 32 28 5 35 -25 7 -28 64
-5 87 8 8 15 30 15 48 0 19 6 40 13 47 10 11 10 13 0 7 -9 -5 -13 3 -13 28 0
20 4 36 9 36 5 0 12 11 15 25 4 16 11 23 18 19 6 -4 8 -3 4 4 -3 6 -1 14 5 17
5 4 8 13 5 21 -3 8 -1 14 5 14 6 0 7 5 4 10 -3 6 1 10 10 10 9 0 13 5 10 10
-3 6 -2 10 3 10 6 0 12 24 15 53 5 56 27 127 39 127 5 0 8 8 8 18 0 13 2 14 9
3 7 -11 10 -9 15 7 4 12 13 19 21 16 7 -3 16 0 21 7 4 8 2 15 -5 17 -8 3 -5 9
9 19 16 12 24 12 35 3 11 -9 15 -9 15 -1 0 6 -4 11 -10 11 -16 0 -12 15 10 40
11 13 20 29 20 36 0 7 6 14 13 17 9 3 7 9 -5 24 -24 26 -23 39 4 46 16 5 19 9
11 19 -8 9 -7 27 6 63 13 37 15 55 7 72 -6 13 -15 23 -19 23 -5 0 -5 5 -2 10
12 20 -17 9 -35 -12 -13 -17 -15 -25 -7 -30 15 -10 -42 -59 -60 -53 -7 2 -13
-2 -13 -9 0 -7 -9 -21 -20 -31 -11 -10 -20 -13 -20 -7 0 7 -5 12 -12 12 -9 0
-9 -3 0 -12 21 -21 14 -41 -13 -36 -17 4 -25 1 -25 -9 0 -29 -25 -6 -36 33
-12 40 -4 64 20 64 6 0 12 9 12 20 0 11 -4 20 -8 20 -16 0 -8 31 10 37 9 4 23
12 30 19 14 14 16 44 3 44 -15 0 -20 51 -6 57 7 2 19 18 26 35 11 28 10 33 -8
47 -23 19 -26 51 -6 51 24 0 9 23 -28 43 -19 11 -37 24 -42 31 -5 8 -11 6 -20
-5 -16 -20 -71 -49 -95 -49 -10 0 -23 -5 -29 -11 -15 -15 -52 9 -47 30 8 30
-13 45 -55 43 -40 -3 -47 4 -43 39 1 3 -10 5 -23 4 -31 -4 -51 18 -33 36 31
33 11 119 -36 154 -14 10 -23 22 -20 27 3 4 -5 17 -17 29 -15 15 -24 18 -32
10 -6 -6 -19 -11 -29 -11 -10 0 -18 -4 -18 -10 0 -5 -6 -10 -13 -10 -18 0 -67
-24 -67 -32 0 -5 -6 -8 -14 -8 -8 0 -17 -7 -20 -16 -4 -9 -13 -14 -21 -10 -10
3 -15 1 -14 -7 2 -6 -12 -36 -31 -64 -28 -46 -37 -53 -65 -53 -40 0 -46 6 -34
38 8 20 6 29 -12 48 -12 13 -26 21 -30 18 -5 -3 -9 2 -9 12 0 35 -27 -6 -40
-61 -9 -39 -17 -54 -27 -51 -7 3 -12 0 -10 -6 1 -7 -7 -14 -17 -16 -15 -3 -17
0 -12 13 5 15 4 16 -9 5 -8 -7 -15 -19 -15 -27 0 -9 -6 -13 -15 -9 -8 3 -14 0
-12 -6 1 -5 -6 -12 -15 -13 -10 -2 -18 1 -18 6 0 5 -11 9 -25 9 -23 0 -25 -2
-14 -21 7 -15 8 -24 1 -31 -7 -7 -6 -15 4 -25 8 -8 14 -20 14 -28 0 -17 -29
-13 -41 6 -8 12 -11 12 -19 -3 -12 -19 -46 -14 -54 9 -4 9 1 17 14 20 16 4 18
9 9 24 -5 10 -17 19 -25 19 -8 0 -12 5 -9 10 3 6 -3 10 -14 10 -12 0 -21 7
-21 15 0 8 5 15 11 15 15 0 2 108 -16 133 -9 13 -11 27 -5 42 5 13 6 26 3 29
-4 3 -2 6 4 6 17 0 21 46 7 79 -14 33 -14 33 -14 56 0 9 -9 15 -21 15 -14 0
-19 5 -16 14 3 8 1 16 -6 19 -8 2 -7 11 5 29 10 15 13 30 8 38 -5 8 -7 17 -4
21 2 4 0 10 -6 14 -7 4 -4 16 6 35 20 34 13 61 -14 53 -14 -3 -26 4 -41 25
-26 37 -26 49 -3 55 15 3 15 5 -3 12 -25 11 -45 30 -45 43 0 6 -5 12 -11 14
-12 4 -31 78 -20 78 4 0 8 7 8 15 0 8 -6 15 -14 15 -7 0 -13 11 -13 25 0 14 4
25 8 25 5 0 7 14 4 30 -2 17 0 30 6 30 6 0 9 6 8 13 -2 17 -55 67 -67 64 -6
-1 -13 7 -15 19 -2 15 4 24 22 33 27 12 28 38 1 33 -30 -5 -26 16 8 51 22 22
31 38 24 43 -11 7 -59 -14 -59 -26 0 -14 -59 -72 -69 -66 -5 3 -7 28 -5 55 5
54 -5 68 -34 50 -15 -10 -18 -21 -15 -60 3 -44 1 -49 -17 -49 -11 0 -20 -4
-20 -10 0 -17 -77 -12 -84 5 -5 15 -36 21 -36 8 0 -5 9 -21 20 -38 21 -32 26
-70 10 -80 -16 -10 -40 -74 -40 -107 0 -46 -17 -68 -50 -68 -17 0 -30 -4 -30
-9 0 -5 -11 -8 -25 -8 -19 0 -24 4 -22 21 2 17 -3 21 -27 19 -36 -3 -57 13
-49 34 4 11 2 14 -8 11 -8 -2 -15 -14 -17 -26 -3 -16 2 -22 16 -22 16 0 20 -6
18 -35 -1 -33 0 -34 30 -29 29 4 31 3 32 -26 0 -17 -2 -28 -6 -26 -9 6 -43
-19 -41 -30 3 -20 -2 -35 -10 -30 -4 3 -6 -6 -3 -21 4 -24 2 -25 -22 -21 -23
5 -26 3 -20 -16 4 -11 11 -24 15 -27 9 -5 -42 -69 -55 -69 -11 0 -55 54 -56
67 0 15 -30 6 -47 -14 -12 -16 -53 -9 -53 8 0 6 -11 27 -25 47 -14 20 -25 45
-25 54 0 10 -6 18 -13 18 -16 0 -87 64 -87 78 0 29 -25 62 -51 67 -39 9 -213
176 -239 230 -14 28 -20 62 -20 105 0 52 -4 69 -25 96 -22 28 -26 46 -30 126
-2 51 -4 96 -4 100 -1 4 -13 3 -28 -3 -19 -7 -28 -6 -33 1 -4 7 -10 3 -13 -12z
m51 -403 c4 -29 44 -105 67 -131 50 -55 95 -113 95 -124 0 -6 5 -8 10 -5 6 3
10 1 10 -5 0 -6 9 -20 20 -32 11 -12 20 -36 20 -53 0 -38 24 -74 47 -71 19 3
63 -40 63 -61 0 -7 3 -13 8 -13 8 0 37 -54 76 -140 21 -48 24 -66 21 -151 -1
-52 -8 -105 -14 -117 -6 -11 -11 -32 -11 -46 0 -14 -4 -26 -10 -26 -5 0 -10
-11 -10 -25 0 -14 -4 -25 -8 -25 -5 0 -8 -14 -7 -31 1 -18 -4 -33 -12 -36 -7
-3 -13 -10 -13 -15 0 -6 -22 -32 -50 -58 -27 -26 -50 -45 -50 -42 0 3 -14 -9
-30 -27 -17 -17 -39 -31 -49 -31 -29 0 -71 49 -71 81 0 28 2 29 45 27 37 -1
49 3 63 21 15 21 53 59 105 109 15 13 18 31 17 92 -2 108 -1 122 8 116 5 -3 9
1 9 9 0 8 -3 15 -6 15 -12 0 -30 57 -32 102 -2 26 -6 45 -11 42 -4 -3 -8 4 -8
16 0 12 -4 18 -10 15 -5 -3 -10 -1 -10 5 0 6 -7 18 -15 26 -10 10 -12 25 -8
46 4 22 3 29 -5 24 -7 -4 -12 -1 -12 10 0 24 -81 97 -94 84 -15 -15 -48 -12
-90 8 -52 26 -84 12 -92 -41 -7 -39 -27 -59 -95 -90 -19 -9 -43 -25 -53 -36
-10 -11 -23 -18 -27 -15 -5 3 -9 -2 -9 -11 0 -9 -4 -13 -10 -10 -5 3 -10 1
-10 -5 0 -7 -9 -19 -19 -28 -24 -21 -42 -94 -46 -191 -2 -40 -7 -81 -11 -90
-10 -24 -11 -81 -2 -87 4 -3 8 -14 8 -25 0 -21 10 -36 47 -72 33 -34 53 -48
54 -40 0 4 4 -1 9 -12 13 -31 11 -72 -4 -88 -19 -19 -67 -10 -73 14 -3 10 -9
17 -13 14 -7 -4 -12 4 -22 33 -1 4 -15 18 -30 30 -16 14 -28 34 -28 47 0 13
-4 27 -10 30 -5 3 -10 17 -10 31 0 13 -4 24 -10 24 -5 0 -10 7 -10 15 0 8 -4
23 -9 33 -10 20 -30 83 -36 110 -2 11 -7 35 -12 53 -4 19 -8 48 -8 64 1 41 25
134 36 141 5 3 9 14 9 24 0 10 3 20 8 22 4 2 18 24 31 51 13 26 28 47 33 47 4
0 8 7 8 15 0 17 45 49 58 41 14 -8 32 35 30 69 -2 21 1 29 10 27 8 -1 11 1 8
6 -3 4 13 28 35 51 21 24 39 47 39 50 0 4 16 24 35 44 19 20 32 37 27 37 -4 0
4 10 18 23 14 12 26 29 28 37 2 8 8 17 12 20 5 3 10 23 12 43 2 32 5 37 22 35
12 -2 22 -12 24 -23z"/>
<path d="M4240 6780 c0 -11 4 -20 9 -20 11 0 22 26 14 34 -12 12 -23 5 -23
-14z"/>
<path d="M4180 6770 c0 -5 5 -10 10 -10 6 0 10 5 10 10 0 6 -4 10 -10 10 -5 0
-10 -4 -10 -10z"/>
<path d="M4578 6673 c7 -3 16 -2 19 1 4 3 -2 6 -13 5 -11 0 -14 -3 -6 -6z"/>
<path d="M4479 6563 c-13 -16 -12 -17 4 -4 16 13 21 21 13 21 -2 0 -10 -8 -17
-17z"/>
<path d="M4560 6505 c0 -8 2 -15 4 -15 2 0 6 7 10 15 3 8 1 15 -4 15 -6 0 -10
-7 -10 -15z"/>
<path d="M5738 6234 c-7 -6 2 -44 11 -45 3 0 14 -2 23 -4 24 -4 31 10 18 35
-10 19 -40 27 -52 14z"/>
<path d="M5766 6073 c-6 -14 -5 -15 5 -6 7 7 10 15 7 18 -3 3 -9 -2 -12 -12z"/>
<path d="M5440 6055 c0 -8 5 -15 10 -15 6 0 10 7 10 15 0 8 -4 15 -10 15 -5 0
-10 -7 -10 -15z"/>
<path d="M5560 6050 c0 -5 5 -10 10 -10 6 0 10 5 10 10 0 6 -4 10 -10 10 -5 0
-10 -4 -10 -10z"/>
<path d="M5636 5984 c-8 -21 -8 -24 3 -24 12 0 22 28 12 35 -5 3 -12 -2 -15
-11z"/>
<path d="M5560 5910 c0 -5 5 -10 11 -10 5 0 7 5 4 10 -3 6 -8 10 -11 10 -2 0
-4 -4 -4 -10z"/>
<path d="M5446 5857 c3 -10 9 -15 12 -12 3 3 0 11 -7 18 -10 9 -11 8 -5 -6z"/>
<path d="M2080 5621 c0 -6 4 -13 10 -16 6 -3 7 1 4 9 -7 18 -14 21 -14 7z"/>
<path d="M2010 5485 c0 -20 22 -44 36 -38 15 6 14 28 -2 28 -5 0 -15 4 -21 8
-7 5 -13 5 -13 2z"/>
<path d="M1977 5131 c3 -12 10 -21 15 -21 13 0 6 32 -9 37 -7 3 -9 -3 -6 -16z"/>
<path d="M1946 5101 c-4 -7 -5 -15 -2 -18 9 -9 19 4 14 18 -4 11 -6 11 -12 0z"/>
<path d="M6538 4544 c-30 -16 -35 -33 -16 -52 15 -15 48 -16 48 -2 0 6 18 10
40 10 30 0 40 4 40 16 0 40 -62 55 -112 28z"/>
<path d="M6360 4454 c0 -10 28 -34 40 -34 7 0 9 7 6 16 -3 9 -6 18 -6 20 0 2
-9 4 -20 4 -11 0 -20 -3 -20 -6z"/>
<path d="M1330 4399 c0 -18 2 -19 15 -9 15 12 12 30 -6 30 -5 0 -9 -10 -9 -21z"/>
<path d="M6490 4411 c0 -5 7 -14 15 -21 13 -10 15 -9 15 9 0 12 -6 21 -15 21
-8 0 -15 -4 -15 -9z"/>
<path d="M6430 4380 c0 -5 5 -10 10 -10 6 0 10 5 10 10 0 6 -4 10 -10 10 -5 0
-10 -4 -10 -10z"/>
<path d="M1251 4334 c0 -11 3 -14 6 -6 3 7 2 16 -1 19 -3 4 -6 -2 -5 -13z"/>
<path d="M6694 4224 c3 -9 6 -18 6 -20 0 -2 9 -4 20 -4 13 0 20 7 20 20 0 15
-7 20 -26 20 -20 0 -25 -4 -20 -16z"/>
<path d="M6895 4120 c-3 -5 -1 -10 4 -10 6 0 11 5 11 10 0 6 -2 10 -4 10 -3 0
-8 -4 -11 -10z"/>
<path d="M6980 4032 c0 -4 9 -13 20 -20 23 -14 26 -7 6 14 -16 15 -26 18 -26
6z"/>
<path d="M6720 3980 c0 -5 5 -10 10 -10 6 0 10 5 10 10 0 6 -4 10 -10 10 -5 0
-10 -4 -10 -10z"/>
<path d="M6695 3960 c-3 -5 -1 -10 4 -10 6 0 11 5 11 10 0 6 -2 10 -4 10 -3 0
-8 -4 -11 -10z"/>
<path d="M7060 3820 c0 -5 5 -10 10 -10 6 0 10 5 10 10 0 6 -4 10 -10 10 -5 0
-10 -4 -10 -10z"/>
<path d="M6750 3770 c0 -5 5 -10 10 -10 6 0 10 5 10 10 0 6 -4 10 -10 10 -5 0
-10 -4 -10 -10z"/>
<path d="M6995 3760 c-3 -5 -1 -10 4 -10 6 0 11 5 11 10 0 6 -2 10 -4 10 -3 0
-8 -4 -11 -10z"/>
<path d="M7113 3718 c-2 -18 0 -20 7 -8 12 18 13 30 2 30 -4 0 -9 -10 -9 -22z"/>
<path d="M7140 3725 c0 -8 7 -15 15 -15 8 0 15 4 15 9 0 5 -7 11 -15 15 -9 3
-15 0 -15 -9z"/>
<path d="M7230 3724 c0 -8 5 -12 10 -9 6 4 8 11 5 16 -9 14 -15 11 -15 -7z"/>
<path d="M6574 3546 c-19 -22 -34 -53 -27 -60 14 -14 45 -5 50 14 3 11 9 20
13 20 5 0 6 9 3 20 -6 23 -23 25 -39 6z"/>
<path d="M1120 3441 c0 -6 4 -13 10 -16 6 -3 7 1 4 9 -7 18 -14 21 -14 7z"/>
<path d="M1080 3410 c0 -5 5 -10 10 -10 6 0 10 5 10 10 0 6 -4 10 -10 10 -5 0
-10 -4 -10 -10z"/>
<path d="M1022 3380 c-16 -26 -15 -37 3 -37 8 0 15 7 15 14 0 8 5 11 10 8 12
-7 12 -3 4 19 -8 21 -17 20 -32 -4z"/>
<path d="M6587 3265 c3 -8 0 -15 -6 -15 -33 0 13 -56 54 -66 14 -3 25 -12 25
-19 0 -18 15 -26 34 -19 14 5 14 8 1 21 -9 9 -13 24 -9 39 5 20 2 24 -15 24
-16 0 -21 6 -21 28 0 20 -3 23 -9 13 -8 -12 -15 -13 -35 -3 -21 9 -24 9 -19
-3z"/>
<path d="M6526 3211 c-3 -5 1 -12 10 -15 20 -8 29 -1 19 13 -8 13 -22 14 -29
2z"/>
<path d="M903 3179 c-1 -13 5 -19 18 -19 24 0 25 16 1 29 -14 8 -18 6 -19 -10z"/>
<path d="M6623 3145 c0 -8 4 -15 9 -15 4 0 8 4 8 9 0 6 -4 12 -8 15 -5 3 -9
-1 -9 -9z"/>
<path d="M6795 3070 c-4 -6 -4 -10 -1 -10 2 0 11 -3 20 -6 9 -3 16 -2 16 4 0
14 -28 23 -35 12z"/>
<path d="M1660 3040 c0 -5 5 -10 10 -10 6 0 10 5 10 10 0 6 -4 10 -10 10 -5 0
-10 -4 -10 -10z"/>
<path d="M6760 3019 c0 -5 5 -7 10 -4 6 3 10 8 10 11 0 2 -4 4 -10 4 -5 0 -10
-5 -10 -11z"/>
<path d="M6779 2797 c6 -8 9 -23 6 -36 -2 -12 0 -19 4 -17 7 5 8 26 2 59 0 4
-6 7 -12 7 -8 0 -8 -4 0 -13z"/>
<path d="M6805 2580 c-3 -5 -1 -10 4 -10 6 0 11 5 11 10 0 6 -2 10 -4 10 -3 0
-8 -4 -11 -10z"/>
<path d="M6630 2570 c0 -5 5 -10 10 -10 6 0 10 5 10 10 0 6 -4 10 -10 10 -5 0
-10 -4 -10 -10z"/>
<path d="M5870 2525 c-7 -9 -11 -18 -8 -20 3 -3 11 1 18 10 7 9 11 18 8 20 -3
3 -11 -1 -18 -10z"/>
<path d="M5880 2470 c0 -5 5 -10 10 -10 6 0 10 5 10 10 0 6 -4 10 -10 10 -5 0
-10 -4 -10 -10z"/>
<path d="M1126 2445 c4 -8 10 -15 15 -15 5 0 9 7 9 15 0 8 -7 15 -15 15 -9 0
-12 -6 -9 -15z"/>
<path d="M5984 2420 c0 -11 6 -15 17 -13 10 3 15 11 13 17 -7 19 -30 15 -30
-4z"/>
<path d="M5864 2406 c1 -8 5 -18 8 -22 4 -3 5 1 4 10 -1 8 -5 18 -8 22 -4 3
-5 -1 -4 -10z"/>
<path d="M5800 2373 c0 -7 4 -13 9 -13 5 0 11 6 14 13 3 8 -1 14 -9 14 -8 0
-14 -6 -14 -14z"/>
<path d="M6095 2370 c-3 -5 -2 -10 4 -10 5 0 13 5 16 10 3 6 2 10 -4 10 -5 0
-13 -4 -16 -10z"/>
<path d="M6695 2360 c3 -5 8 -10 11 -10 2 0 4 5 4 10 0 6 -5 10 -11 10 -5 0
-7 -4 -4 -10z"/>
<path d="M5896 2313 c-6 -14 -5 -15 5 -6 7 7 10 15 7 18 -3 3 -9 -2 -12 -12z"/>
<path d="M5883 2250 c-1 -11 4 -20 13 -20 8 0 14 -6 14 -14 0 -21 17 -29 37
-17 16 9 16 10 -3 11 -14 0 -26 10 -34 30 -14 35 -25 39 -27 10z"/>
<path d="M6970 2195 c0 -3 9 -15 20 -27 22 -24 26 -18 10 13 -10 17 -30 27
-30 14z"/>
<path d="M5876 2172 c-8 -13 0 -46 11 -49 5 -2 16 3 22 11 11 13 10 18 -2 31
-18 17 -24 18 -31 7z"/>
<path d="M5940 2144 c0 -8 5 -12 10 -9 6 3 10 10 10 16 0 5 -4 9 -10 9 -5 0
-10 -7 -10 -16z"/>
<path d="M6160 2146 c0 -17 14 -29 23 -20 8 8 -3 34 -14 34 -5 0 -9 -6 -9 -14z"/>
<path d="M5776 2134 c-9 -23 -8 -24 13 -24 14 0 18 5 14 20 -6 24 -19 26 -27
4z"/>
<path d="M2505 2099 c-6 -19 12 -55 23 -44 11 11 8 41 -4 53 -10 9 -14 7 -19
-9z"/>
<path d="M5970 2100 c0 -6 -29 -10 -66 -10 -48 0 -64 -3 -61 -12 2 -7 18 -12
35 -12 29 2 30 0 29 -40 -1 -32 2 -42 16 -44 23 -5 47 16 40 34 -3 9 2 14 17
14 18 0 21 4 16 23 -3 12 -6 30 -6 40 0 9 -4 17 -10 17 -5 0 -10 -4 -10 -10z"/>
<path d="M1420 2060 c0 -11 5 -20 10 -20 6 0 10 9 10 20 0 11 -4 20 -10 20 -5
0 -10 -9 -10 -20z"/>
<path d="M6770 2046 c0 -19 5 -26 20 -26 16 0 18 4 11 22 -12 32 -31 34 -31 4z"/>
<path d="M5650 2051 c0 -6 4 -13 10 -16 6 -3 7 1 4 9 -7 18 -14 21 -14 7z"/>
<path d="M1320 2030 c0 -5 5 -10 10 -10 6 0 10 5 10 10 0 6 -4 10 -10 10 -5 0
-10 -4 -10 -10z"/>
<path d="M2516 2031 c-4 -5 -2 -12 3 -15 5 -4 12 -2 15 3 4 5 2 12 -3 15 -5 4
-12 2 -15 -3z"/>
<path d="M6000 2010 c-8 -16 -8 -20 4 -20 16 0 29 27 16 35 -5 3 -14 -4 -20
-15z"/>
<path d="M980 2000 c0 -19 3 -21 12 -12 9 9 9 15 0 24 -9 9 -12 7 -12 -12z"/>
<path d="M1154 2004 c3 -9 6 -18 6 -20 0 -2 4 -4 8 -4 4 0 8 9 9 20 1 12 -4
20 -14 20 -10 0 -13 -6 -9 -16z"/>
<path d="M1300 2001 c0 -25 6 -27 13 -6 4 8 2 17 -3 20 -6 4 -10 -3 -10 -14z"/>
<path d="M6043 1975 c0 -8 4 -15 9 -15 4 0 8 4 8 9 0 6 -4 12 -8 15 -5 3 -9
-1 -9 -9z"/>
<path d="M2140 1970 c0 -5 5 -10 10 -10 6 0 10 5 10 10 0 6 -4 10 -10 10 -5 0
-10 -4 -10 -10z"/>
<path d="M6096 1877 c3 -10 9 -15 12 -12 3 3 0 11 -7 18 -10 9 -11 8 -5 -6z"/>
<path d="M1360 1870 c0 -5 5 -10 11 -10 5 0 7 5 4 10 -3 6 -8 10 -11 10 -2 0
-4 -4 -4 -10z"/>
<path d="M5907 1873 c-10 -10 -8 -33 2 -33 6 0 9 9 8 20 -1 23 -1 22 -10 13z"/>
<path d="M5717 1864 c-8 -8 1 -24 14 -24 5 0 9 7 9 15 0 15 -12 20 -23 9z"/>
<path d="M1270 1840 c-8 -26 -7 -41 2 -32 6 6 8 16 5 24 -3 7 -6 11 -7 8z"/>
<path d="M1970 1830 c20 -13 33 -13 25 0 -3 6 -14 10 -23 10 -15 0 -15 -2 -2
-10z"/>
<path d="M2568 1820 c-18 -20 -14 -30 12 -30 9 0 16 9 17 20 2 28 -11 32 -29
10z"/>
<path d="M2440 1779 c0 -5 5 -7 10 -4 6 3 10 8 10 11 0 2 -4 4 -10 4 -5 0 -10
-5 -10 -11z"/>
<path d="M2524 1775 c9 -10 24 -14 33 -11 20 8 10 19 -24 24 -24 3 -24 2 -9
-13z"/>
<path d="M2876 1765 c-4 -10 1 -15 16 -15 17 0 18 2 8 15 -7 8 -14 15 -15 15
-2 0 -5 -7 -9 -15z"/>
<path d="M5797 1751 c-9 -15 -14 -31 -10 -35 3 -3 7 -16 8 -29 1 -14 13 -27
31 -36 65 -31 62 -31 57 -10 -3 10 -13 19 -23 19 -13 0 -19 11 -24 48 -9 67
-18 78 -39 43z"/>
<path d="M2484 1754 c-18 -14 -18 -15 4 -4 12 6 22 13 22 15 0 8 -5 6 -26 -11z"/>
<path d="M1240 1749 c0 -5 5 -7 10 -4 6 3 10 8 10 11 0 2 -4 4 -10 4 -5 0 -10
-5 -10 -11z"/>
<path d="M2725 1730 c3 -5 8 -10 11 -10 2 0 4 5 4 10 0 6 -5 10 -11 10 -5 0
-7 -4 -4 -10z"/>
<path d="M1580 1709 c0 -5 5 -7 10 -4 6 3 10 8 10 11 0 2 -4 4 -10 4 -5 0 -10
-5 -10 -11z"/>
<path d="M2446 1705 c-3 -9 0 -15 9 -15 9 0 12 6 9 15 -4 8 -7 15 -9 15 -2 0
-5 -7 -9 -15z"/>
<path d="M2805 1710 c-3 -5 -1 -10 4 -10 6 0 11 5 11 10 0 6 -2 10 -4 10 -3 0
-8 -4 -11 -10z"/>
<path d="M5645 1710 c3 -5 8 -10 11 -10 2 0 4 5 4 10 0 6 -5 10 -11 10 -5 0
-7 -4 -4 -10z"/>
<path d="M2500 1691 c0 -6 9 -9 20 -8 11 1 20 5 20 9 0 4 -9 8 -20 8 -11 0
-20 -4 -20 -9z"/>
<path d="M1620 1670 c0 -5 7 -10 16 -10 8 0 12 5 9 10 -3 6 -10 10 -16 10 -5
0 -9 -4 -9 -10z"/>
<path d="M2435 1670 c-3 -5 1 -10 9 -10 9 0 16 5 16 10 0 6 -4 10 -9 10 -6 0
-13 -4 -16 -10z"/>
<path d="M2670 1660 c-9 -6 -10 -10 -3 -10 6 0 15 5 18 10 8 12 4 12 -15 0z"/>
<path d="M1690 1656 c0 -2 7 -6 15 -10 8 -3 15 -1 15 4 0 6 -7 10 -15 10 -8 0
-15 -2 -15 -4z"/>
<path d="M5600 1623 c0 -23 15 -39 23 -26 3 5 -1 17 -9 28 -14 18 -14 18 -14
-2z"/>
<path d="M2410 1620 c0 -5 5 -10 10 -10 6 0 10 5 10 10 0 6 -4 10 -10 10 -5 0
-10 -4 -10 -10z"/>
<path d="M991 1603 c-7 -8 -10 -17 -7 -20 9 -9 29 13 25 25 -2 6 -10 3 -18 -5z"/>
<path d="M5744 1589 c1 -20 6 -29 18 -29 9 0 25 -12 36 -27 23 -31 43 -24 36
14 -7 39 -23 63 -42 64 -9 0 -24 2 -33 4 -12 2 -16 -5 -15 -26z"/>
<path d="M820 1530 c0 -5 5 -10 10 -10 6 0 10 5 10 10 0 6 -4 10 -10 10 -5 0
-10 -4 -10 -10z"/>
<path d="M2182 1450 c0 -14 2 -19 5 -12 2 6 2 18 0 25 -3 6 -5 1 -5 -13z"/>
<path d="M860 1455 c0 -5 5 -17 10 -25 5 -8 10 -10 10 -5 0 6 -5 17 -10 25 -5
8 -10 11 -10 5z"/>
<path d="M3003 1333 c-8 -3 -13 -23 -13 -49 0 -25 -5 -44 -11 -44 -13 0 -8
-30 5 -33 6 -1 15 28 21 66 6 37 11 67 10 66 0 0 -6 -3 -12 -6z"/>
<path d="M765 1251 c-13 -6 -21 -19 -23 -39 -2 -34 8 -45 32 -36 20 8 21 24 1
24 -8 0 -15 5 -15 10 0 6 7 10 15 10 8 0 15 9 15 20 0 11 -1 20 -2 19 -2 0
-12 -4 -23 -8z"/>
<path d="M5320 1180 c0 -11 5 -20 10 -20 6 0 10 9 10 20 0 11 -4 20 -10 20 -5
0 -10 -9 -10 -20z"/>
<path d="M2927 913 c-12 -11 -8 -23 8 -23 8 0 15 7 15 15 0 16 -12 20 -23 8z"/>
</g>
</svg>
